<?xml version="1.0" encoding="UTF-8" standalone="no"?>
<svg
   xmlns:dc="http://purl.org/dc/elements/1.1/"
   xmlns:cc="http://creativecommons.org/ns#"
   xmlns:rdf="http://www.w3.org/1999/02/22-rdf-syntax-ns#"
   xmlns:svg="http://www.w3.org/2000/svg"
   xmlns="http://www.w3.org/2000/svg"
   xmlns:sodipodi="http://sodipodi.sourceforge.net/DTD/sodipodi-0.dtd"
   xmlns:inkscape="http://www.inkscape.org/namespaces/inkscape"
   width="156"
   height="40"
   viewBox="0 0 156 40"
   version="1.1"
   id="svg4"
   sodipodi:docname="abra-logo-white.svg"
   inkscape:version="1.0.1 (3bc2e813f5, 2020-09-07)">
  <metadata
     id="metadata10">
    <rdf:RDF>
      <cc:Work
         rdf:about="">
        <dc:format>image/svg+xml</dc:format>
        <dc:type
           rdf:resource="http://purl.org/dc/dcmitype/StillImage" />
      </cc:Work>
    </rdf:RDF>
  </metadata>
  <defs
     id="defs8" />
  <sodipodi:namedview
     pagecolor="#ffffff"
     bordercolor="#666666"
     borderopacity="1"
     objecttolerance="10"
     gridtolerance="10"
     guidetolerance="10"
     inkscape:pageopacity="0"
     inkscape:pageshadow="2"
     inkscape:window-width="1263"
     inkscape:window-height="480"
     id="namedview6"
     showgrid="false"
     inkscape:zoom="2.9759615"
     inkscape:cx="88.2018"
     inkscape:cy="9.240665"
     inkscape:window-x="0"
     inkscape:window-y="25"
     inkscape:window-maximized="0"
     inkscape:current-layer="svg4" />
  <path
     fill="#FFF"
     fill-rule="nonzero"
     d="m 134.948,22.703 0.07,-1.325 c 0.026,-0.48 0.042,-0.96 0.059,-1.437 0.039,-1.12 0.077,-2.277 0.236,-3.428 0.244,-1.75 1.615,-2.98 3.333,-3 1.804,0 3.177,1.197 3.457,2.98 0.177,1.134 0.22,2.29 0.26,3.406 0.018,0.484 0.036,0.974 0.065,1.473 l 0.077,1.33 h -7.557 z m 20.435,-0.235 c -0.43,-3.392 -1.046,-6.662 -1.734,-9.133 C 151.897,5.223 146.197,0.061 139.119,0 c -7.053,0.061 -12.795,5.223 -14.546,13.335 -1.022,3.633 -1.697,7.801 -2.04,11.9 a 66.445,66.444999 0 0 0 -0.268,5.669 c -0.038,3.96 0.593,6.533 1.927,7.867 0.829,0.828 1.993,1.229 3.56,1.229 2.865,0 4.988,-2.182 6.167,-4.231 0.998,-1.734 2.242,-3.894 5.213,-3.894 2.972,0 4.214,2.159 5.212,3.894 1.18,2.049 3.302,4.231 6.168,4.231 1.565,0 2.73,-0.401 3.558,-1.229 1.335,-1.333 1.966,-3.906 1.928,-7.867 -0.029,-3.053 -0.2,-5.555 -0.615,-8.436 z m -141.888,0.235 0.07,-1.325 c 0.026,-0.48 0.042,-0.96 0.059,-1.437 0.038,-1.12 0.077,-2.277 0.236,-3.428 0.244,-1.75 1.615,-2.98 3.333,-3 1.803,0 3.177,1.197 3.457,2.98 0.177,1.134 0.22,2.29 0.26,3.406 0.018,0.484 0.036,0.974 0.065,1.473 l 0.077,1.33 H 13.495 Z M 33.12,22.468 C 32.69,19.076 32.074,15.806 31.386,13.335 29.634,5.223 23.934,0.061 16.856,0 9.803,0.061 4.06,5.223 2.31,13.335 1.288,16.968 0.613,21.136 0.27,25.235 a 66.446,66.445999 0 0 0 -0.268,5.669 c -0.038,3.96 0.593,6.533 1.927,7.867 C 2.758,39.6 3.922,40 5.49,40 c 2.866,0 4.988,-2.182 6.167,-4.231 0.998,-1.734 2.242,-3.894 5.213,-3.894 2.972,0 4.214,2.159 5.212,3.894 1.178,2.049 3.301,4.231 6.167,4.231 1.565,0 2.73,-0.401 3.559,-1.229 1.334,-1.333 1.964,-3.906 1.927,-7.867 -0.029,-3.053 -0.2,-5.555 -0.615,-8.436 z m 67.338,-5.044 c -1.192,0.19 -2.361,0.234 -3.6,0.28 -0.524,0.019 -1.055,0.038 -1.592,0.07 l -1.072,0.064 V 10.27 l 1.065,0.058 c 0.52,0.029 1.041,0.046 1.559,0.066 1.186,0.038 2.414,0.082 3.624,0.252 1.736,0.247 2.912,1.584 2.928,3.323 0.016,1.79 -1.156,3.176 -2.912,3.455 z M 117.654,32.7 c -4.214,-1.676 -6.469,-4.35 -8.61,-7.532 l -0.688,-1.026 1.098,-0.62 c 0.294,-0.167 0.582,-0.32 0.863,-0.472 0.556,-0.297 1.083,-0.579 1.53,-0.895 0.906,-0.64 1.519,-1.162 1.991,-1.694 2.013,-2.256 2.667,-5.468 2.176,-8.819 -0.53,-3.635 -2.66,-6.9300002 -5.621,-8.81 C 107.422,0.94 104.135,0.044 99.482,0.012 95.006,-0.009 90.347,0 85.87,0.02 A 17.44,17.44 0 0 0 83.245,0.24 C 81.378,0.53 80.31,1.58 80.067,3.364 79.957,4.164 79.9,4.9439999 79.897,5.6799998 79.887,15.213 79.887,24.753 79.897,34.289 c 0.003,0.762 0.06,1.54 0.168,2.308 0.262,1.831 1.194,2.774 2.936,2.964 2.087,0.222 4.595,0.236 6.37,0.04 2.473,-0.27 3.594,-1.409 3.656,-3.93 0.042,-1.732 0.041,-3.502 0.041,-5.214 0,-0.766 0,-1.53 0.003,-2.295 v -2.465 c 0,0 1.479,-0.121 1.958,-0.121 1.768,0 2.136,1.097 2.765,2.614 l 0.125,0.317 c 0.069,0.173 0.135,0.347 0.214,0.518 l 0.137,0.307 c 1.411,3.177 2.744,6.176 5.138,8.598 1.586,1.608 4.068,2.07 6.354,2.07 0.983,0 1.949,-0.168 2.87,-0.499 2.757,-0.987 4.905,-3.904 5.043,-6.77 -0.008,-0.01 -0.014,-0.02 -0.02,-0.03 z m -57,-4.187 a 8.723,8.7229999 0 0 1 -2.25,0.38 c -0.535,0.02 -1.07,0.026 -1.612,0.026 -0.378,0 -0.759,-0.004 -1.147,-0.006 -0.393,-0.004 -0.79,-0.004 -1.197,-0.004 h -1.009 v -6.206 l 1.062,0.051 c 0.565,0.027 1.126,0.05 1.683,0.07 1.333,0.049 2.712,0.1 4.07,0.243 1.42,0.14 2.327,1.158 2.36,2.655 0.034,1.395 -0.663,2.388 -1.96,2.791 z m -7.216,-18.243 0.928,0.043 c 0.417,0.02 0.833,0.034 1.25,0.049 1.008,0.03 2.053,0.064 3.086,0.192 1.39,0.18 2.222,1.122 2.29,2.583 0.072,1.609 -0.741,2.741 -2.126,2.959 -1.034,0.163 -2.087,0.209 -3.107,0.256 -0.455,0.02 -0.914,0.04 -1.376,0.071 l -0.945,0.063 z m 15.25,8.2 c 0,0 6.586,-2.21 5.573,-10.0399999 C 73.777,4.6889998 71.026,2.071 67.731,1.232 65.332,0.622 62.627,0.218 59.674,0.1 57.984,0.03 56.177,0 53.987,0 52.43,0 50.874,0.016 49.315,0.031 48.158,0.043 47.002,0.055 45.845,0.061 A 17.16,17.16 0 0 0 43.233,0.283 C 41.398,0.58299998 40.35,1.657 40.118,3.473 40.008,4.3360001 39.955,5.103 39.954,5.8149999 39.942,15.38 39.94,24.948 39.957,34.521 c 0,0.889 0.065,1.572 0.19,2.366 0.259,1.614 1.154,2.524 2.82,2.861 0.744,0.147 1.382,0.22 1.945,0.223 l 3.098,0.013 c 2.008,0.008 4.016,0.016 6.023,0.016 2.916,0 5.32,-0.018 7.566,-0.059 3.5,-0.064 6.454,-0.805 9.031,-2.269 3.01,-1.705 4.86,-4.6 5.373,-7.977 1.15,-7.563 -7.313,-11.224 -7.313,-11.224 z"
     id="path2"
     style="fill:#3b1959;stroke-width:1;fill-opacity:1" />
</svg>
